Coordinates
version=1
nRows=16
nColumns=42
inDegrees=yes

Units are S.I. units (second, meters, Newtons, ...)
If the header above contains a line with 'inDegrees', this indicates whether rotational values are in degrees (yes) or radians (no).

endheader
time	pelvis_tilt	pelvis_list	pelvis_rotation	pelvis_tx	pelvis_ty	pelvis_tz	hip_flexion_r	hip_adduction_r	hip_rotation_r	knee_angle_r	knee_adduction_r	knee_angle_r_beta	ankle_angle_r	subtalar_angle_r	mtp_angle_r	hip_flexion_l	hip_adduction_l	hip_rotation_l	knee_angle_l	knee_adduction_l	knee_angle_l_beta	ankle_angle_l	subtalar_angle_l	mtp_angle_l	lumbar_extension	lumbar_bending	lumbar_rotation	arm_flex_r	arm_add_r	arm_rot_r	elbow_flex_r	pro_sup_r	wrist_flex_r	wrist_dev_r	arm_flex_l	arm_add_l	arm_rot_l	elbow_flex_l	pro_sup_l	wrist_flex_l	wrist_dev_l
      0.36000000	      8.48279856	      1.39319662	      1.07182836	     -1.42790087	      0.91961130	      0.24305330	     22.54348538	      1.00433352	    -16.56856357	     17.63707119	     -4.99629316	      0.30782496	     10.15213490	     12.79144042	     -9.35342899	    -28.81933925	      0.69924344	    -21.21129709	     17.24765642	     -4.99975656	      0.30102839	     19.68711279	     34.31467697	     -9.35342899	    -21.93968397	      1.43525198	     -7.95421887	     -7.03619549	     -5.26854679	      1.71366467	     29.14988131	     90.00000001	      0.00000000	      0.00000000	      6.92430819	    -17.15527224	     -7.09654335	     53.72359549	     90.00000001	      0.00000000	      0.00000000
      0.37000000	      8.60024276	      0.93939211	      0.94343554	     -1.41080749	      0.92019206	      0.24469603	     22.54504348	      1.62397691	    -16.41502681	     19.86224004	     -5.31253992	      0.34666149	      9.92669189	     12.01649079	     -9.32166774	    -28.76466122	      0.03356777	    -20.88126043	     19.41939271	     -5.40383246	      0.33893234	     17.55221723	     33.33016752	     -9.32166774	    -21.95421697	      1.94799979	     -7.74725272	     -6.75070634	     -5.47826703	      1.88615139	     28.98142232	     90.00000001	      0.00000000	      0.00000000	      6.31103651	    -16.86193534	     -7.18601854	     53.48280518	     90.00000001	      0.00000000	      0.00000000
      0.38000000	      8.76528633	      0.48930686	      0.72698817	     -1.39384791	      0.92141882	      0.24645056	     22.30077069	      2.27122802	    -15.89387809	     21.82853479	     -5.46118222	      0.38097980	      9.67320044	     10.94957619	     -9.28398866	    -28.55657399	     -0.57077932	    -20.41317992	     21.88603345	     -5.81948182	      0.38198334	     15.04924215	     31.82734856	     -9.28398866	    -22.06199091	      2.43051088	     -7.45699185	     -6.41649844	     -5.68416238	      2.03354472	     28.85406829	     90.00000001	      0.00000000	      0.00000000	      5.69538362	    -16.48816400	     -7.37147949	     53.11724856	     90.00000001	      0.00000000	      0.00000000
      0.39000000	      9.09306846	      0.06179204	      0.46635316	     -1.37705941	      0.92329144	      0.24828634	     21.69027704	      2.89866579	    -15.15714241	     23.52758532	     -5.46171354	      0.41063383	      9.63206382	     10.61362430	     -9.27243403	    -28.36941750	     -1.13364578	    -19.67715930	     24.53241921	     -6.11171114	      0.42817149	     13.52753614	     31.06077043	     -9.27243403	    -22.40023287	      2.85555843	     -7.09631060	     -6.02088574	     -5.90511486	      2.04672026	     28.87959111	     90.00000001	      0.00000000	      0.00000000	      5.13787685	    -16.16344825	     -7.39618235	     52.79132944	     90.00000001	      0.00000000	      0.00000000
      0.40000000	      9.14097635	     -0.32790269	      0.09609987	     -1.36059642	      0.92563879	      0.25019328	     21.05489620	      3.61668178	    -13.25077248	     24.69998248	     -5.03909045	      0.43109602	      9.18150632	      7.04005154	     -9.15615163	    -27.62710636	     -1.44054061	    -18.20858479	     27.56007305	     -6.33966757	      0.48101402	     10.04581434	     25.63561917	     -9.15615163	    -22.44858731	      3.20854237	     -6.69038746	     -5.54045365	     -6.11147816	      2.26134399	     28.60026115	     90.00000001	      0.00000000	      0.00000000	      4.60398109	    -15.53279353	     -7.93492598	     51.89074761	     90.00000001	      0.00000000	      0.00000000
      0.41000000	      9.29727177	     -0.71522962	     -0.24360118	     -1.34439567	      0.92827414	      0.25218533	     20.27094900	      4.22838974	    -12.22189571	     25.76384417	     -4.77997431	      0.44966391	      9.37579817	      5.87595286	     -9.04565324	    -26.66301220	     -1.95737462	    -17.60657700	     31.01797850	     -6.65956651	      0.54136585	      7.90736345	     22.71027215	     -9.04565324	    -22.66000484	      3.52551536	     -6.22713915	     -5.13169066	     -6.30230293	      2.25180175	     28.61900050	     90.00000001	      0.00000000	      0.00000000	      4.04183897	    -15.17181150	     -7.91335805	     51.24969709	     90.00000001	      0.00000000	      0.00000000
      0.42000000	      9.40420509	     -1.05085891	     -0.61330741	     -1.32852919	      0.93118426	      0.25417694	     19.39851139	      4.77069725	    -11.36369252	     26.51592695	     -4.53112025	      0.46279023	      9.82308635	      5.23143772	     -8.93022409	    -25.41076645	     -2.42622887	    -17.08858888	     34.68008332	     -6.98046331	      0.60528164	      6.04604849	     19.57962008	     -8.93022409	    -22.85878367	      3.75905872	     -5.73973376	     -4.66183922	     -6.48024128	      2.19087997	     28.66494525	     90.00000001	      0.00000000	      0.00000000	      3.49566625	    -14.77590420	     -7.85132210	     50.52753968	     90.00000001	      0.00000000	      0.00000000
      0.43000000	      9.45441604	     -1.33600189	     -0.96020064	     -1.31298832	      0.93429898	      0.25614272	     18.45131963	      5.22598648	    -10.73303071	     26.96903742	     -4.30951420	      0.47069850	     10.46503009	      5.06862035	     -8.83635490	    -23.89855293	     -2.88059034	    -16.65187283	     38.42861618	     -7.30272934	      0.67070588	      4.45256384	     16.48046397	     -8.83635490	    -23.01488567	      3.92414794	     -5.25270020	     -4.18860419	     -6.65334018	      2.15351601	     28.74674432	     90.00000001	      0.00000000	      0.00000000	      3.01563049	    -14.40295364	     -7.68063900	     49.65416194	     90.00000001	      0.00000000	      0.00000000
      0.44000000	      9.48098331	     -1.56596322	     -1.30092962	     -1.29776795	      0.93761146	      0.25808899	     17.39970583	      5.60988760	    -10.28948646	     27.12476549	     -4.14692430	      0.47341647	     11.24322804	      5.26291968	     -8.74637876	    -22.21858930	     -3.28371772	    -16.21667483	     42.12901232	     -7.58472942	      0.73528998	      3.28694680	     13.19137397	     -8.74637876	    -23.17029463	      4.00863167	     -4.74713713	     -3.71945466	     -6.83146932	      2.11361081	     28.92366122	     90.00000001	      0.00000000	      0.00000000	      2.55856826	    -14.06669707	     -7.42604945	     48.78886320	     90.00000001	      0.00000000	      0.00000000
      0.45000000	      9.46281876	     -1.73614196	     -1.60696515	     -1.28281617	      0.94104781	      0.25994642	     16.28456032	      5.89049758	    -10.06621875	     27.01148060	     -4.01522770	      0.47143927	     12.11133762	      5.81404382	     -8.66948116	    -20.37125166	     -3.65059772	    -15.91878536	     45.66931621	     -7.89910583	      0.79707993	      2.50442241	     10.10041086	     -8.66948116	    -23.28318001	      4.01841628	     -4.24792566	     -3.26284455	     -7.00935650	      2.10238728	     29.15745730	     90.00000001	      0.00000000	      0.00000000	      2.13719228	    -13.72145515	     -7.07098979	     47.86484819	     90.00000001	      0.00000000	      0.00000000
      0.46000000	      9.45917982	     -1.92879328	     -1.82950679	     -1.26803521	      0.94458356	      0.26181384	     14.98542188	      6.19588161	     -9.92659449	     26.55466431	     -3.89590136	      0.46346632	     12.90725968	      6.28078458	     -8.64795160	    -18.42732583	     -4.14854604	    -16.17627139	     48.95413456	     -8.53275556	      0.85441083	      2.52319213	      8.70629235	     -8.64795160	    -23.40291225	      4.04103016	     -3.88509782	     -2.80729845	     -7.15965123	      2.09719868	     29.46708752	     90.00000001	      0.00000000	      0.00000000	      1.52992899	    -13.43296573	     -6.86497917	     47.29562866	     90.00000001	      0.00000000	      0.00000000
      0.47000000	      9.37009702	     -1.85108281	     -2.14652543	     -1.25362000	      0.94824308	      0.26351472	     13.83372337	      6.16171192	    -10.09833708	     26.09994875	     -3.91035815	      0.45553004	     13.89187989	      7.65017106	     -8.57308258	    -16.37261683	     -4.16541340	    -15.58592716	     51.92501038	     -8.59410614	      0.90626240	      2.02234843	      4.47815180	     -8.57308258	    -23.42323940	      3.76755595	     -3.29699858	     -2.42527144	     -7.33747923	      2.19190821	     29.77837018	     90.00000001	      0.00000000	      0.00000000	      1.38633526	    -13.16517197	     -6.11525430	     45.85279391	     90.00000001	      0.00000000	      0.00000000
      0.48000000	      9.26386328	     -1.86370647	     -2.39237939	     -1.23930724	      0.95186520	      0.26523589	     12.52690420	      6.26653224	    -10.01031454	     25.30066915	     -3.85757531	      0.44157998	     14.60357569	      8.33581884	     -8.54926540	    -14.22275334	     -4.39503742	    -16.06025312	     54.47284623	     -9.36060795	      0.95073052	      2.63866882	      3.09219382	     -8.54926540	    -23.42764835	      3.57803669	     -2.90686612	     -1.94835596	     -7.50492927	      2.21326697	     30.12140297	     90.00000001	      0.00000000	      0.00000000	      0.84592891	    -12.90583440	     -5.83172760	     45.22063287	     90.00000001	      0.00000000	      0.00000000
      0.49000000	      9.14701162	     -1.66703056	     -2.63852141	     -1.22517471	      0.95554853	      0.26677237	     11.29475661	      6.04115907	    -10.40462493	     24.55054816	     -3.85796087	      0.42848790	     15.45699466	      9.92418982	     -8.48334943	    -12.05783140	     -4.29418269	    -16.07782895	     56.60698593	     -9.78739007	      0.98797828	      2.89170818	      0.45130590	     -8.48334943	    -23.38793153	      3.16903961	     -2.42174984	     -1.60172760	     -7.72774036	      2.40874305	     30.55323491	     90.00000001	      0.00000000	      0.00000000	      0.65848472	    -12.70214192	     -4.97166022	     43.87874972	     90.00000001	      0.00000000	      0.00000000
      0.50000000	      8.99785688	     -1.51533870	     -2.87975427	     -1.21122031	      0.95914534	      0.26835899	      9.97796942	      5.93502280	    -10.34695229	     23.55725530	     -3.79154752	      0.41115167	     16.00900752	     10.70855317	     -8.45925900	     -9.81717598	     -4.28514932	    -16.67423533	     58.32193733	    -10.59008445	      1.01790983	      3.88201032	     -0.64039862	     -8.45925900	    -23.32612616	      2.79564426	     -2.04619636	     -1.16094259	     -7.87257329	      2.48018782	     30.91331555	     90.00000001	      0.00000000	      0.00000000	      0.15672160	    -12.49003727	     -4.63831002	     43.22035869	     90.00000001	      0.00000000	      0.00000000
      0.51000000	      8.83680688	     -1.22762696	     -3.13008350	     -1.19734340	      0.96266076	      0.26979344	      8.73709053	      5.60900675	    -10.70760012	     22.61604697	     -3.78806408	      0.39472448	     16.67648284	     12.22604359	     -8.40311850	     -7.58579174	     -4.05197722	    -17.16679973	     59.57317766	    -11.27446612	      1.03974810	      4.65344293	     -1.98562887	     -8.40311850	    -23.20841412	      2.28907816	     -1.63431347	     -0.82304723	     -8.11587664	      2.79354876	     31.43389616	     90.00000001	      0.00000000	      0.00000000	     -0.09790365	    -12.34983690	     -3.75183915	     41.95133326	     90.00000001	      0.00000000	      0.00000000
